<?xml version="1.0" encoding="UTF-8" standalone="no"?>
<!-- Created with Inkscape (http://www.inkscape.org/) -->

<svg
   width="503.75256"
   height="180.86581"
   viewBox="0 0 133.28453 47.85408"
   version="1.1"
   id="svg337"
   inkscape:version="1.2.2 (b0a8486541, 2022-12-01)"
   sodipodi:docname="tenli.svg"
   xmlns:inkscape="http://www.inkscape.org/namespaces/inkscape"
   xmlns:sodipodi="http://sodipodi.sourceforge.net/DTD/sodipodi-0.dtd"
   xmlns="http://www.w3.org/2000/svg"
   xmlns:svg="http://www.w3.org/2000/svg">
  <sodipodi:namedview
     id="namedview339"
     pagecolor="#ffffff"
     bordercolor="#000000"
     borderopacity="0.25"
     inkscape:showpageshadow="2"
     inkscape:pageopacity="0.0"
     inkscape:pagecheckerboard="0"
     inkscape:deskcolor="#d1d1d1"
     inkscape:document-units="mm"
     showgrid="false"
     inkscape:zoom="2"
     inkscape:cx="219.75"
     inkscape:cy="83.75"
     inkscape:window-width="1452"
     inkscape:window-height="749"
     inkscape:window-x="116"
     inkscape:window-y="118"
     inkscape:window-maximized="0"
     inkscape:current-layer="layer1" />
  <defs
     id="defs334" />
  <g
     inkscape:label="Layer 1"
     inkscape:groupmode="layer"
     id="layer1"
     transform="translate(-11.115956,-6.7684193)">
    <rect
       style="opacity:1;fill:none;fill-opacity:0.74902;stroke:#000000;stroke-width:2.5;stroke-linejoin:miter;stroke-dasharray:none"
       id="rect451"
       width="45.35408"
       height="45.35408"
       x="12.365956"
       y="8.0184193"
       ry="6.4271827" />
    <g
       aria-label="10"
       transform="scale(1.0103203,0.98978512)"
       id="text2063"
       style="font-weight:bold;font-size:32.3976px;-inkscape-font-specification:'sans-serif Bold';letter-spacing:-3.32845px;opacity:1;stroke-width:1.5306"
       inkscape:label="10Text">
      <path
         d="M 29.855505,19.448455 V 42.52858 H 25.315412 V 24.700409 l -5.473423,1.740106 V 22.84957 l 9.538942,-3.401115 z"
         style="font-family:Roboto;-inkscape-font-specification:'Roboto Bold'"
         id="path4137" />
      <path
         d="m 49.528085,28.987396 v 3.986423 q 0,2.594339 -0.55367,4.476817 -0.55367,1.866658 -1.597733,3.068913 -1.028244,1.186435 -2.451967,1.755924 -1.423723,0.56949 -3.163828,0.56949 -1.392084,0 -2.594339,-0.348022 -1.202254,-0.36384 -2.167222,-1.123158 -0.949148,-0.759319 -1.645191,-1.914116 -0.680223,-1.170617 -1.044063,-2.784169 -0.36384,-1.613552 -0.36384,-3.701679 v -3.986423 q 0,-2.594339 0.55367,-4.445178 0.569489,-1.866659 1.597733,-3.053094 1.044063,-1.186436 2.467786,-1.740106 1.423722,-0.569489 3.163828,-0.569489 1.392084,0 2.57852,0.363841 1.202254,0.348021 2.167222,1.09152 0.964967,0.7435 1.64519,1.914116 0.680223,1.154797 1.044063,2.76835 0.363841,1.597733 0.363841,3.67004 z m -4.571732,4.587551 V 28.37045 q 0,-1.249712 -0.142372,-2.183042 -0.126553,-0.933329 -0.395478,-1.581914 -0.268926,-0.664404 -0.664404,-1.075701 -0.395479,-0.411298 -0.901691,-0.601127 -0.506213,-0.18983 -1.123159,-0.18983 -0.775138,0 -1.376265,0.300564 -0.585309,0.300563 -0.996606,0.964967 -0.411298,0.648585 -0.632766,1.740105 -0.205649,1.075702 -0.205649,2.625978 v 5.204497 q 0,1.249712 0.126554,2.19886 0.142372,0.949148 0.411297,1.629371 0.284745,0.664404 0.664404,1.091521 0.395479,0.411298 0.901691,0.601127 0.522032,0.18983 1.138978,0.18983 0.759319,0 1.344627,-0.300564 0.601127,-0.316382 1.012425,-0.980786 0.427117,-0.680223 0.632765,-1.771744 0.205649,-1.091521 0.205649,-2.657615 z"
         style="font-family:Roboto;-inkscape-font-specification:'Roboto Bold'"
         id="path4139" />
    </g>
    <text
       xml:space="preserve"
       style="font-style:normal;font-variant:normal;font-weight:600;font-stretch:normal;font-size:38.8056px;font-family:Roboto;-inkscape-font-specification:'Roboto Semi-Bold';letter-spacing:-0.926042px;display:none;fill:#000000;fill-opacity:1;stroke-width:2"
       x="66.400673"
       y="45.0895"
       id="text1635"
       inkscape:label="TenliText"><tspan
         sodipodi:role="line"
         id="tspan1633"
         style="font-style:normal;font-variant:normal;font-weight:500;font-stretch:normal;font-size:38.8056px;font-family:Roboto;-inkscape-font-specification:'Roboto Medium';fill:#000000;fill-opacity:1;stroke-width:2"
         x="66.400673"
         y="45.0895">Tenli</tspan></text>
    <g
       aria-label="Tenli"
       id="text247"
       style="font-weight:600;font-size:38.8056px;font-family:Roboto;-inkscape-font-specification:'Roboto Semi-Bold';letter-spacing:-0.926042px;display:inline;stroke-width:2"
       inkscape:label="TenliText">
      <path
         d="M 80.554864,17.501145 V 45.0895 H 75.8368 V 17.501145 Z m 8.659257,0 v 3.789609 H 67.253335 v -3.789609 z"
         style="font-weight:500;-inkscape-font-specification:'Roboto Medium'"
         id="path249" />
      <path
         d="m 98.709504,45.468461 q -2.273766,0 -4.111726,-0.738973 -1.819013,-0.757922 -3.10748,-2.103234 -1.269519,-1.345311 -1.951649,-3.164323 -0.682129,-1.819013 -0.682129,-3.922246 v -0.757922 q 0,-2.406402 0.701077,-4.358051 0.701078,-1.951648 1.951649,-3.334856 1.250571,-1.402155 2.955895,-2.141129 1.705324,-0.738974 3.694869,-0.738974 2.19797,0 3.84645,0.738974 1.64848,0.738974 2.72852,2.084285 1.09899,1.326363 1.62953,3.164324 0.5495,1.83796 0.5495,4.054882 v 1.951649 H 91.073441 v -3.278012 h 11.330929 v -0.360013 q -0.0379,-1.231623 -0.49265,-2.311662 -0.4358,-1.080039 -1.34531,-1.74322 -0.909504,-0.663182 -2.425348,-0.663182 -1.136882,0 -2.027441,0.492649 -0.87161,0.473701 -1.458999,1.383208 -0.58739,0.909506 -0.909506,2.197973 -0.303169,1.269519 -0.303169,2.861155 v 0.757922 q 0,1.345311 0.360013,2.501142 0.378961,1.136883 1.098986,1.989545 0.720026,0.852662 1.743221,1.345311 1.023194,0.473701 2.330609,0.473701 1.648484,0 2.936944,-0.663181 1.28847,-0.663182 2.23587,-1.875857 l 2.4064,2.33061 q -0.66318,0.96635 -1.72427,1.856909 -1.06109,0.87161 -2.59588,1.421103 -1.51584,0.549493 -3.524336,0.549493 z"
         style="font-weight:500;-inkscape-font-specification:'Roboto Medium'"
         id="path251" />
      <path
         d="M 114.05983,28.964713 V 45.0895 h -4.56647 V 24.587714 h 4.3012 z m -0.81476,5.115972 -1.47795,-0.01895 q 0.0189,-2.179025 0.60634,-3.998037 0.60634,-1.819013 1.66743,-3.126428 1.08004,-1.307415 2.57693,-2.008493 1.4969,-0.720026 3.33486,-0.720026 1.47794,0 2.67167,0.416857 1.21268,0.397909 2.06534,1.307415 0.87161,0.909507 1.32636,2.368506 0.45476,1.440052 0.45476,3.543285 V 45.0895 h -4.58543 V 31.825868 q 0,-1.477948 -0.43581,-2.33061 -0.41685,-0.87161 -1.23162,-1.231623 -0.79582,-0.378961 -1.98954,-0.378961 -1.17478,0 -2.10324,0.492649 -0.92845,0.49265 -1.57269,1.345312 -0.62528,0.852662 -0.96635,1.970597 -0.34106,1.117934 -0.34106,2.387453 z"
         style="font-weight:500;-inkscape-font-specification:'Roboto Medium'"
         id="path253" />
      <path
         d="M 135.09458,15.985301 V 45.0895 h -4.58543 V 15.985301 Z"
         style="font-weight:500;-inkscape-font-specification:'Roboto Medium'"
         id="path255" />
      <path
         d="M 144.05942,24.587714 V 45.0895 h -4.58543 V 24.587714 Z m -4.8886,-5.381245 q 0,-1.042143 0.68213,-1.724272 0.70108,-0.701078 1.9327,-0.701078 1.21268,0 1.91376,0.701078 0.70107,0.682129 0.70107,1.724272 0,1.023194 -0.70107,1.705324 -0.70108,0.68213 -1.91376,0.68213 -1.23162,0 -1.9327,-0.68213 -0.68213,-0.68213 -0.68213,-1.705324 z"
         style="font-weight:500;-inkscape-font-specification:'Roboto Medium'"
         id="path257" />
    </g>
  </g>
</svg>
